<!-- Generated by IcoMoon.io -->
<svg version="1.1" xmlns="http://www.w3.org/2000/svg" width="32" height="32" viewBox="0 0 32 32">
<title>brand</title>
<path d="M18.9 32h4.9c4.5 0 8.2-3.7 8.2-8.2v-15.6c0-4.5-3.7-8.2-8.2-8.2h-5c-0.1 0-0.2 0.1-0.2 0.2v31.6c0 0.1 0.1 0.2 0.3 0.2zM25 14.4c1.8 0 3.2 1.5 3.2 3.2 0 1.8-1.5 3.2-3.2 3.2-1.8 0-3.2-1.4-3.2-3.2-0.1-1.8 1.4-3.2 3.2-3.2zM15.2 0h-7c-4.5 0-8.2 3.7-8.2 8.2v15.6c0 4.5 3.7 8.2 8.2 8.2h7c0.1 0 0.2-0.1 0.2-0.2v-31.6c0-0.1-0.1-0.2-0.2-0.2zM12.9 29.4h-4.7c-3.1 0-5.6-2.5-5.6-5.6v-15.6c0-3.1 2.5-5.6 5.6-5.6h4.6l0.1 26.8zM5 9.6c0 1.7 1.3 3 3 3s3-1.3 3-3-1.3-3-3-3-3 1.3-3 3z"></path>
</svg>
